HIERARCHY
ROOT root
{
	OFFSET	0	13.1	24.9
	CHANNELS 6  Xposition Yposition Zposition Xrotation Yrotation Zrotation
	JOINT spine_1
	{
		OFFSET	0	9.99999	0
		CHANNELS 3  Xrotation Yrotation Zrotation
		JOINT spine_2
		{
			OFFSET	0	112	-10
			CHANNELS 3  Xrotation Yrotation Zrotation
			JOINT spine_3
			{
				OFFSET	0	206.5	19.3
				CHANNELS 3  Xrotation Yrotation Zrotation
				JOINT spine_4
				{
					OFFSET	0	110.4	14.6
					CHANNELS 3  Xrotation Yrotation Zrotation
					JOINT neck_1
					{
						OFFSET	0	71.8	-50.3
						CHANNELS 3  Xrotation Yrotation Zrotation
						JOINT neck_2
						{
							OFFSET	0	86.2	-25.8
							CHANNELS 3  Xrotation Yrotation Zrotation
							JOINT head_ee
							{
								OFFSET	0	179.8	-8.7
								CHANNELS 3  Xrotation Yrotation Zrotation
								End Site
								{
									OFFSET	1	0	0
								}
							}
						}
					}
					JOINT left_clavicle
					{
						OFFSET	-43.2	22.4	-70.8
						CHANNELS 3  Xrotation Yrotation Zrotation
						JOINT left_shoulder
						{
							OFFSET	-93.9	-5.79999	48.7
							CHANNELS 3  Xrotation Yrotation Zrotation
							JOINT left_elbow
							{
								OFFSET	-291.4	-30.8	15.2
								CHANNELS 3  Xrotation Yrotation Zrotation
								JOINT left_lowarm_twist
								{
									OFFSET	-110.7	-3.89999	13.6
									CHANNELS 3  Xrotation Yrotation Zrotation
									JOINT left_hand
									{
										OFFSET	-110.7	-3.89999	13.6
										CHANNELS 3  Xrotation Yrotation Zrotation
										JOINT left_ee
										{
											OFFSET	-80.8	-5.10001	12.1
											CHANNELS 3  Xrotation Yrotation Zrotation
											End Site
											{
												OFFSET	1	0	0
											}
										}
									}
								}
							}
						}
					}
					JOINT right_clavicle
					{
						OFFSET	43.2	22.4	-70.8
						CHANNELS 3  Xrotation Yrotation Zrotation
						JOINT right_shoulder
						{
							OFFSET	93.9	-5.79999	48.7
							CHANNELS 3  Xrotation Yrotation Zrotation
							JOINT right_elbow
							{
								OFFSET	291.4	-30.8	15.2
								CHANNELS 3  Xrotation Yrotation Zrotation
								JOINT right_lowarm_twist
								{
									OFFSET	110.7	-3.89999	13.6
									CHANNELS 3  Xrotation Yrotation Zrotation
									JOINT right_hand
									{
										OFFSET	110.7	-3.89999	13.6
										CHANNELS 3  Xrotation Yrotation Zrotation
										JOINT right_ee
										{
											OFFSET	80.8	-5.10001	12.1
											CHANNELS 3  Xrotation Yrotation Zrotation
											End Site
											{
												OFFSET	1	0	0
											}
										}
									}
								}
							}
						}
					}
				}
			}
		}
	}
	JOINT left_hip
	{
		OFFSET	-82.8	-127.5	0.300001
		CHANNELS 3  Xrotation Yrotation Zrotation
		JOINT left_knee
		{
			OFFSET	-28.2	-396.7	2.2
			CHANNELS 3  Xrotation Yrotation Zrotation
			JOINT left_ankle
			{
				OFFSET	-11.7	-411.3	35.4
				CHANNELS 3  Xrotation Yrotation Zrotation
				JOINT left_toes
				{
					OFFSET	0	-60	-88.6
					CHANNELS 3  Xrotation Yrotation Zrotation
					JOINT left_foot_ee
					{
						OFFSET	-22.5	-16.5	-42.2
						CHANNELS 3  Xrotation Yrotation Zrotation
						End Site
						{
							OFFSET	1	0	0
						}
					}
				}
			}
		}
	}
	JOINT right_hip
	{
		OFFSET	82.8	-127.5	0.300001
		CHANNELS 3  Xrotation Yrotation Zrotation
		JOINT right_knee
		{
			OFFSET	28.2	-396.7	2.2
			CHANNELS 3  Xrotation Yrotation Zrotation
			JOINT right_ankle
			{
				OFFSET	11.7	-411.3	35.4
				CHANNELS 3  Xrotation Yrotation Zrotation
				JOINT right_toes
				{
					OFFSET	0	-60	-88.6
					CHANNELS 3  Xrotation Yrotation Zrotation
					JOINT right_foot_ee
					{
						OFFSET	22.5	-16.5	-42.2
						CHANNELS 3  Xrotation Yrotation Zrotation
						End Site
						{
							OFFSET	1	0	0
						}
					}
				}
			}
		}
	}
}
MOTION
Frames: 6
Frame Time: 0.02
2941.67503752 679.825 -1908.72655359 3.04827503371 17.5974151803 -2.30581352852 -1.72055 0.219445 0.73755 -1.72027 0.172069 0.750018 -1.71766 -0.0124738 0.769401 -1.71847 0.109192 0.761716 -0.745702 3.97843 0.812944 -0.720337 6.46841 1.32511 -0.0 0.0 -0.0 9.87214 24.6106 16.4331 -5.51601 -37.2191 52.4808 1.52379 -37.0446 0.51054 -37.1133 -2.64953 3.84572 1.45062 27.093 18.9999 -0.0 0.0 -0.0 7.20036 23.1167 -12.9481 -17.2323 26.0187 -61.0307 0.582353 16.092 -0.0823218 1.71658 -0.0573111 0.211745 3.24315 8.75187 -18.4895 0.0 0.0 0.0 15.233 20.0574 3.55581 -30.7437 0.0148632 4.66184 40.5695 23.4862 -5.17451 -37.6467 0.0 0.0 -0.0 0.0 -0.0 18.4645 49.6009 -13.2492 -55.8784 1.77175 -8.05594 41.3869 -22.4436 5.2194 13.6548 -0.0 -0.0 0.0 0.0 0.0 
2928.32427587 683.453 -1920.99245577 3.42989166736 18.6476559342 -2.10300611762 -1.63859 0.324738 0.584966 -1.63845 0.286857 0.604443 -1.63517 0.134777 0.655341 -1.63569 0.236582 0.625832 -0.790898 4.04033 0.207542 -0.759821 7.07128 0.688655 -0.0 0.0 -0.0 9.95442 25.0521 16.4678 -4.77969 -37.501 51.6984 1.7356 -40.6842 0.643508 -37.1507 -2.65336 3.8486 1.11878 25.6807 16.6457 -0.0 0.0 -0.0 7.10647 22.4485 -12.803 -18.2079 25.3776 -61.6493 0.551135 15.2707 -0.0738836 1.8052 -0.0600975 0.222722 3.32059 8.48949 -19.1602 0.0 0.0 0.0 13.6441 21.054 2.91967 -30.2898 0.0328591 4.5945 39.5047 23.0072 -5.05975 -37.5179 0.0 0.0 -0.0 0.0 -0.0 23.3236 48.0073 -17.0317 -54.0337 1.59133 -7.83621 41.8194 -21.5143 5.23246 13.9829 -0.0 -0.0 0.0 0.0 0.0 
2906.41883415 689.509 -1927.40659141 3.53201832439 18.9039078943 -2.69553607854 -1.59818 0.49391 0.720325 -1.59801 0.447074 0.750292 -1.59175 0.256335 0.834925 -1.59251 0.384975 0.783968 -0.66197 4.43246 -0.994465 -0.603929 8.73954 -0.557859 -0.0 0.0 -0.0 9.99578 25.0293 16.5323 -3.06858 -37.1225 51.9832 1.77069 -41.2519 0.66652 -37.4244 -2.68151 3.86961 0.947688 23.0153 14.8091 -0.0 0.0 -0.0 7.30064 21.6391 -13.2995 -19.4164 24.7856 -61.9086 0.522193 14.5035 -0.0664479 2.44925 -0.0798344 0.30262 2.81992 8.02036 -15.8299 0.0 0.0 0.0 9.57294 18.2355 5.59724 -25.3028 0.195137 3.84659 38.7222 23.8673 -5.00895 -37.9138 0.0 0.0 -0.0 0.0 -0.0 26.4878 41.3059 -17.4162 -52.903 1.48428 -7.69873 42.3796 -22.9837 5.32501 14.6563 -0.0 -0.0 0.0 0.0 0.0 
2887.54948398 689.772 -1929.97310856 3.12154903283 20.1191120014 -2.32017584442 -1.74442 0.312408 0.728199 -1.74416 0.265439 0.746601 -1.74032 0.0786965 0.788463 -1.74113 0.202228 0.766142 -2.45465 3.61534 1.19077 -2.4392 5.61096 1.74308 -0.0 0.0 -0.0 9.98005 25.3504 16.4463 -1.02567 -36.859 52.2312 2.11628 -46.3463 0.905951 -38.3244 -2.77475 3.93774 0.598667 24.0476 13.0716 -0.0 0.0 -0.0 7.5192 21.0574 -13.8278 -18.7677 23.4279 -61.064 0.483717 13.4753 -0.0571463 1.59787 -0.0535521 0.197048 2.85606 8.08665 -16.0541 0.0 0.0 0.0 9.52914 16.3985 5.41377 -26.8039 0.153156 4.07312 37.6754 22.613 -4.87097 -38.0497 0.0 0.0 -0.0 0.0 -0.0 27.092 36.2351 -15.0168 -53.3528 1.52654 -7.75368 41.4224 -17.5416 5.10357 13.2412 -0.0 -0.0 0.0 0.0 0.0 
2852.34231211 689.33 -1938.88191923 2.01920243971 20.253055554 -1.45215103539 -1.73052 0.354167 0.384706 -1.7305 0.328969 0.406463 -1.72804 0.222025 0.473431 -1.72823 0.294008 0.432426 -0.830797 6.03487 1.74194 -0.776186 9.41154 2.55471 -0.0 0.0 -0.0 9.37536 25.9964 15.4634 3.61947 -35.6106 55.1092 2.66325 -52.8294 1.32308 -35.9419 -2.53029 3.75424 0.756997 20.6588 12.8808 -0.0 0.0 -0.0 6.65539 21.1326 -11.932 -20.5547 24.3213 -61.6999 0.555173 15.3773 -0.0749509 0.676626 -0.0233485 0.0832612 3.07837 6.92297 -18.1372 0.0 0.0 0.0 8.10834 21.0975 5.40379 -25.1272 0.19966 3.82002 37.0726 21.1135 -4.77397 -37.7257 0.0 0.0 -0.0 0.0 -0.0 27.1571 34.1957 -13.5475 -50.6593 1.28007 -7.41991 41.1164 -18.8427 5.10376 12.8509 -0.0 -0.0 0.0 0.0 0.0 
2825.7063282 685.485 -1939.85668884 3.99909624719 26.0676821562 -1.46058689991 -1.9748 -0.119072 -0.269858 -1.97477 -0.101659 -0.276888 -1.97422 -0.0311074 -0.293315 -1.97433 -0.0770404 -0.284721 -1.90526 5.34241 2.36706 -1.86776 7.76438 3.18535 -0.0 0.0 -0.0 10.4803 25.0597 17.2327 2.34432 -38.7614 52.8346 2.57525 -51.8992 1.25339 -35.7058 -2.50649 3.7355 0.546956 18.2578 10.7559 -0.0 0.0 -0.0 6.36256 20.7267 -11.3285 -22.0048 23.5768 -61.2496 0.541722 15.0218 -0.0714244 0.296602 -0.0103563 0.0364644 2.83628 3.11914 -18.051 0.0 0.0 0.0 2.23885 18.6728 6.86966 -19.0849 0.305405 2.89929 41.6615 18.4871 -5.14434 -36.8221 0.0 0.0 -0.0 0.0 -0.0 43.1773 34.8295 -14.717 -53.1253 1.50511 -7.72592 36.5234 -22.117 4.74311 11.0592 -0.0 -0.0 0.0 0.0 0.0 
